<mxfile host="65bd71144e">
    <diagram id="H2HbESEU0GgYGBUPKNEj" name="第 1 页">
        <mxGraphModel dx="931" dy="670" grid="1" gridSize="10" guides="1" tooltips="1" connect="1" arrows="1" fold="1" page="1" pageScale="1" pageWidth="827" pageHeight="1169" math="0" shadow="0">
            <root>
                <mxCell id="0"/>
                <mxCell id="1" parent="0"/>
                <mxCell id="4" style="edgeStyle=orthogonalEdgeStyle;html=1;exitX=1;exitY=0.5;exitDx=0;exitDy=0;entryX=0;entryY=0.5;entryDx=0;entryDy=0;sketch=1;curved=1;" parent="1" source="2" target="3" edge="1">
                    <mxGeometry relative="1" as="geometry"/>
                </mxCell>
                <mxCell id="8" style="edgeStyle=orthogonalEdgeStyle;curved=1;sketch=1;html=1;exitX=1;exitY=0.5;exitDx=0;exitDy=0;entryX=0;entryY=0.5;entryDx=0;entryDy=0;fontSize=12;" parent="1" source="2" target="7" edge="1">
                    <mxGeometry relative="1" as="geometry"/>
                </mxCell>
                <mxCell id="2" value="双端链表&lt;br&gt;list" style="rounded=0;whiteSpace=wrap;html=1;fillColor=#ffe6cc;strokeColor=#d79b00;comic=1;" parent="1" vertex="1">
                    <mxGeometry x="40" y="310" width="80" height="40" as="geometry"/>
                </mxCell>
                <mxCell id="6" style="edgeStyle=orthogonalEdgeStyle;curved=1;sketch=1;html=1;exitX=1;exitY=0.5;exitDx=0;exitDy=0;entryX=0;entryY=0.5;entryDx=0;entryDy=0;fontSize=12;" parent="1" source="3" target="5" edge="1">
                    <mxGeometry relative="1" as="geometry"/>
                </mxCell>
                <mxCell id="3" value="数据结构相关代码" style="rounded=0;whiteSpace=wrap;html=1;comic=1;fillColor=#dae8fc;strokeColor=#6c8ebf;" parent="1" vertex="1">
                    <mxGeometry x="150" y="173" width="120" height="30" as="geometry"/>
                </mxCell>
                <mxCell id="12" style="edgeStyle=orthogonalEdgeStyle;curved=1;sketch=1;html=1;exitX=1;exitY=0.5;exitDx=0;exitDy=0;entryX=0;entryY=0.5;entryDx=0;entryDy=0;fontSize=12;" parent="1" source="5" target="11" edge="1">
                    <mxGeometry relative="1" as="geometry"/>
                </mxCell>
                <mxCell id="5" value="&lt;div style=&quot;color: rgb(56 , 58 , 66) ; background-color: rgb(250 , 250 , 250) ; font-family: &amp;#34;consolas&amp;#34; , &amp;#34;courier new&amp;#34; , monospace ; line-height: 22px&quot;&gt;&lt;div&gt;&lt;span style=&quot;color: #a0a1a7 ; font-style: italic&quot;&gt;/*&amp;nbsp;&lt;/span&gt;&lt;span style=&quot;color: rgb(160 , 161 , 167) ; font-style: italic&quot;&gt;双端链表节点&amp;nbsp;&lt;/span&gt;&lt;span style=&quot;color: rgb(160 , 161 , 167) ; font-style: italic&quot;&gt;*/&lt;/span&gt;&lt;/div&gt;&lt;div&gt;&lt;span style=&quot;color: #a626a4&quot;&gt;typedef&lt;/span&gt; &lt;span style=&quot;color: #a626a4&quot;&gt;struct&lt;/span&gt; &lt;span style=&quot;color: #c18401&quot;&gt;listNode&lt;/span&gt; {&lt;/div&gt;&lt;div&gt;&amp;nbsp; &amp;nbsp; &lt;span style=&quot;color: #a626a4&quot;&gt;struct&lt;/span&gt; &lt;span style=&quot;color: #c18401&quot;&gt;listNode&lt;/span&gt; &lt;span style=&quot;color: #a626a4&quot;&gt;*&lt;/span&gt;&lt;span style=&quot;color: #e45649&quot;&gt;prev&lt;/span&gt;;&lt;span style=&quot;color: rgb(160 , 161 , 167) ; font-style: italic&quot;&gt;// 前置节点&lt;/span&gt;&lt;/div&gt;&lt;div&gt;&amp;nbsp; &amp;nbsp; &lt;span style=&quot;color: #a626a4&quot;&gt;struct&lt;/span&gt; &lt;span style=&quot;color: #c18401&quot;&gt;listNode&lt;/span&gt; &lt;span style=&quot;color: #a626a4&quot;&gt;*&lt;/span&gt;&lt;span style=&quot;color: #e45649&quot;&gt;next&lt;/span&gt;;&lt;span style=&quot;color: rgb(160 , 161 , 167) ; font-style: italic&quot;&gt;// 后置节点&lt;/span&gt;&lt;/div&gt;&lt;div&gt;&amp;nbsp; &amp;nbsp; &lt;span style=&quot;color: #a626a4&quot;&gt;void&lt;/span&gt; &lt;span style=&quot;color: #a626a4&quot;&gt;*&lt;/span&gt;&lt;span style=&quot;color: #e45649&quot;&gt;value&lt;/span&gt;;&lt;span style=&quot;color: rgb(160 , 161 , 167) ; font-style: italic&quot;&gt;// 节点的值&lt;/span&gt;&lt;/div&gt;&lt;div&gt;} &lt;span style=&quot;color: #c18401&quot;&gt;listNode&lt;/span&gt;;&lt;/div&gt;&lt;div&gt;&lt;div style=&quot;font-family: &amp;#34;consolas&amp;#34; , &amp;#34;courier new&amp;#34; , monospace ; line-height: 22px&quot;&gt;&lt;div&gt;&lt;span style=&quot;color: #a0a1a7 ; font-style: italic&quot;&gt;/*&amp;nbsp;&lt;/span&gt;&lt;span style=&quot;color: rgb(160 , 161 , 167) ; font-style: italic&quot;&gt;双端链表结构&amp;nbsp;&lt;/span&gt;&lt;span style=&quot;color: rgb(160 , 161 , 167) ; font-style: italic&quot;&gt;*/&lt;/span&gt;&lt;/div&gt;&lt;div&gt;&lt;span style=&quot;color: #a626a4&quot;&gt;typedef&lt;/span&gt; &lt;span style=&quot;color: #a626a4&quot;&gt;struct&lt;/span&gt; &lt;span style=&quot;color: #c18401&quot;&gt;list&lt;/span&gt; {&lt;/div&gt;&lt;div&gt;&amp;nbsp; &amp;nbsp; &lt;span style=&quot;color: #c18401&quot;&gt;listNode&lt;/span&gt; &lt;span style=&quot;color: #a626a4&quot;&gt;*&lt;/span&gt;&lt;span style=&quot;color: #e45649&quot;&gt;head&lt;/span&gt;;&lt;span style=&quot;color: rgb(160 , 161 , 167) ; font-style: italic&quot;&gt;// 表头节点&lt;/span&gt;&lt;/div&gt;&lt;div&gt;&amp;nbsp; &amp;nbsp; &lt;span style=&quot;color: #c18401&quot;&gt;listNode&lt;/span&gt; &lt;span style=&quot;color: #a626a4&quot;&gt;*&lt;/span&gt;&lt;span style=&quot;color: #e45649&quot;&gt;tail&lt;/span&gt;;&lt;span style=&quot;color: rgb(160 , 161 , 167) ; font-style: italic&quot;&gt;// 表尾节点&lt;/span&gt;&lt;/div&gt;&lt;div&gt;&amp;nbsp; &amp;nbsp; &lt;span style=&quot;color: #a626a4&quot;&gt;void&lt;/span&gt; &lt;span style=&quot;color: #a626a4&quot;&gt;*&lt;/span&gt;(&lt;span style=&quot;color: #a626a4&quot;&gt;*&lt;/span&gt;&lt;span style=&quot;color: #e45649&quot;&gt;dup&lt;/span&gt;)(&lt;span style=&quot;color: #a626a4&quot;&gt;void&lt;/span&gt; &lt;span style=&quot;color: #a626a4&quot;&gt;*&lt;/span&gt;ptr);&lt;span style=&quot;color: rgb(160 , 161 , 167) ; font-style: italic&quot;&gt;// 节点值复制函数&lt;/span&gt;&lt;/div&gt;&lt;div&gt;&amp;nbsp; &amp;nbsp; &lt;span style=&quot;color: #a626a4&quot;&gt;void&lt;/span&gt; (&lt;span style=&quot;color: #a626a4&quot;&gt;*&lt;/span&gt;&lt;span style=&quot;color: #e45649&quot;&gt;free&lt;/span&gt;)(&lt;span style=&quot;color: #a626a4&quot;&gt;void&lt;/span&gt; &lt;span style=&quot;color: #a626a4&quot;&gt;*&lt;/span&gt;ptr);&lt;span style=&quot;color: rgb(160 , 161 , 167) ; font-style: italic&quot;&gt;// 节点值释放函数&lt;/span&gt;&lt;/div&gt;&lt;div&gt;&amp;nbsp; &amp;nbsp; &lt;span style=&quot;color: #a626a4&quot;&gt;int&lt;/span&gt; (&lt;span style=&quot;color: #a626a4&quot;&gt;*&lt;/span&gt;&lt;span style=&quot;color: #e45649&quot;&gt;match&lt;/span&gt;)(&lt;span style=&quot;color: #a626a4&quot;&gt;void&lt;/span&gt; &lt;span style=&quot;color: #a626a4&quot;&gt;*&lt;/span&gt;ptr, &lt;span style=&quot;color: #a626a4&quot;&gt;void&lt;/span&gt; &lt;span style=&quot;color: #a626a4&quot;&gt;*&lt;/span&gt;key);&lt;span style=&quot;color: rgb(160 , 161 , 167) ; font-style: italic&quot;&gt;// 节点值对比函数&lt;/span&gt;&lt;/div&gt;&lt;div&gt;&amp;nbsp; &amp;nbsp; &lt;span style=&quot;color: #a626a4&quot;&gt;unsigned&lt;/span&gt; &lt;span style=&quot;color: #a626a4&quot;&gt;long&lt;/span&gt; &lt;span style=&quot;color: #e45649&quot;&gt;len&lt;/span&gt;;&lt;span style=&quot;color: rgb(160 , 161 , 167) ; font-style: italic&quot;&gt;// 链表所包含的节点数量&lt;/span&gt;&lt;/div&gt;&lt;div&gt;} &lt;span style=&quot;color: #c18401&quot;&gt;list&lt;/span&gt;;&lt;/div&gt;&lt;/div&gt;&lt;/div&gt;&lt;/div&gt;" style="rounded=0;whiteSpace=wrap;html=1;fillColor=#ffe6cc;strokeColor=#d79b00;comic=1;align=left;" parent="1" vertex="1">
                    <mxGeometry x="313" y="20" width="367" height="336" as="geometry"/>
                </mxCell>
                <mxCell id="10" style="edgeStyle=orthogonalEdgeStyle;curved=1;sketch=1;html=1;exitX=1;exitY=0.5;exitDx=0;exitDy=0;entryX=0;entryY=0.5;entryDx=0;entryDy=0;fontSize=12;" parent="1" source="7" target="9" edge="1">
                    <mxGeometry relative="1" as="geometry"/>
                </mxCell>
                <mxCell id="7" value="双端链表结构" style="rounded=0;whiteSpace=wrap;html=1;comic=1;fillColor=#dae8fc;strokeColor=#6c8ebf;" parent="1" vertex="1">
                    <mxGeometry x="160" y="455" width="120" height="30" as="geometry"/>
                </mxCell>
                <mxCell id="9" value="" style="shape=image;imageAspect=0;aspect=fixed;verticalLabelPosition=bottom;verticalAlign=top;comic=1;fontSize=12;image=https://codereaper-image-bed.oss-cn-shenzhen.aliyuncs.com/img/image-20220908122119893.png;imageBorder=default;sketch=1;" parent="1" vertex="1">
                    <mxGeometry x="320" y="440" width="460.86" height="60.27" as="geometry"/>
                </mxCell>
                <mxCell id="11" value="可以发现，redis中是使用&lt;b&gt;函数指针&lt;/b&gt;来实现一定的面向对象多态特性的" style="rounded=0;whiteSpace=wrap;html=1;fillColor=#ffe6cc;strokeColor=#d79b00;comic=1;sketch=1;align=left;" parent="1" vertex="1">
                    <mxGeometry x="720" y="159.75" width="160" height="56.5" as="geometry"/>
                </mxCell>
            </root>
        </mxGraphModel>
    </diagram>
</mxfile>